<?xml version="1.0" encoding="UTF-8" standalone="no"?>
<!DOCTYPE svg PUBLIC "-//W3C//DTD SVG 1.1//EN" "http://www.w3.org/Graphics/SVG/1.1/DTD/svg11.dtd">
<svg width="100%" height="100%" viewBox="0 0 1000 1000" version="1.1" xmlns="http://www.w3.org/2000/svg" xmlns:xlink="http://www.w3.org/1999/xlink" xml:space="preserve" xmlns:serif="http://www.serif.com/" style="fill-rule:evenodd;clip-rule:evenodd;stroke-linejoin:round;stroke-miterlimit:2;">
    <g transform="matrix(1,0,0,1,-1863.040629,-558.97772)">
        <g transform="matrix(0.921498,0,0,0.921498,1327.41261,68.639555)">
            <path d="M1666.448,803.408L1666.448,1346.003C1666.448,1495.736 1544.884,1617.3 1395.151,1617.3L852.556,1617.3C702.823,1617.3 581.258,1495.736 581.258,1346.003L581.258,803.408C581.258,653.674 702.823,532.11 852.556,532.11L1395.151,532.11C1544.884,532.11 1666.448,653.674 1666.448,803.408Z" style="fill:rgb(249,249,249);"/>
        </g>
        <g transform="matrix(1,0,0,1,1282.437746,101.57769)">
            <g transform="matrix(833.333333,0,0,833.333333,725.602883,1264.7335)">
                <path d="M0.409,-0.082L0.406,-0.086L0.406,-0.64C0.406,-0.647 0.405,-0.653 0.403,-0.656C0.4,-0.66 0.396,-0.662 0.39,-0.662L0.356,-0.664C0.35,-0.665 0.346,-0.666 0.344,-0.669C0.341,-0.671 0.34,-0.674 0.34,-0.678C0.34,-0.683 0.342,-0.686 0.344,-0.689C0.347,-0.692 0.352,-0.695 0.36,-0.698L0.442,-0.727C0.453,-0.731 0.461,-0.733 0.468,-0.735C0.475,-0.737 0.481,-0.738 0.486,-0.738C0.495,-0.738 0.501,-0.735 0.506,-0.731C0.51,-0.726 0.512,-0.719 0.512,-0.711L0.512,-0.07C0.512,-0.061 0.514,-0.054 0.517,-0.049C0.521,-0.045 0.526,-0.042 0.532,-0.04L0.555,-0.035C0.561,-0.033 0.565,-0.031 0.568,-0.028C0.571,-0.025 0.573,-0.021 0.573,-0.017C0.573,-0.012 0.571,-0.008 0.567,-0.005C0.563,-0.002 0.557,-0 0.549,-0L0.46,-0C0.445,-0 0.432,-0.004 0.423,-0.013C0.414,-0.022 0.409,-0.035 0.409,-0.051L0.409,-0.082ZM0.041,-0.224C0.041,-0.277 0.052,-0.322 0.073,-0.361C0.093,-0.399 0.121,-0.429 0.157,-0.45C0.192,-0.47 0.231,-0.481 0.275,-0.481C0.314,-0.481 0.35,-0.471 0.381,-0.451C0.412,-0.432 0.438,-0.404 0.457,-0.368L0.432,-0.342C0.414,-0.372 0.394,-0.395 0.37,-0.411C0.345,-0.427 0.32,-0.435 0.292,-0.434C0.266,-0.435 0.242,-0.427 0.221,-0.413C0.2,-0.398 0.183,-0.376 0.171,-0.347C0.159,-0.318 0.153,-0.281 0.153,-0.236C0.153,-0.194 0.158,-0.159 0.17,-0.13C0.182,-0.102 0.198,-0.08 0.218,-0.066C0.239,-0.052 0.262,-0.044 0.288,-0.044C0.315,-0.044 0.341,-0.052 0.365,-0.068C0.389,-0.084 0.411,-0.107 0.431,-0.139L0.448,-0.112C0.422,-0.073 0.392,-0.043 0.358,-0.021C0.324,0.001 0.287,0.012 0.247,0.012C0.207,0.012 0.172,0.002 0.141,-0.019C0.11,-0.039 0.086,-0.067 0.068,-0.102C0.05,-0.137 0.041,-0.178 0.041,-0.224Z" style="fill-rule:nonzero;"/>
            </g>
            <g transform="matrix(833.333333,0,0,833.333333,1231.852883,1264.7335)">
                <path d="M0.122,0.009C0.109,0.009 0.096,0.006 0.085,-0.001C0.073,-0.008 0.064,-0.018 0.058,-0.029C0.051,-0.041 0.048,-0.053 0.048,-0.067C0.048,-0.081 0.051,-0.093 0.058,-0.105C0.064,-0.116 0.073,-0.125 0.085,-0.132C0.096,-0.139 0.109,-0.142 0.122,-0.142C0.136,-0.142 0.149,-0.139 0.16,-0.132C0.171,-0.125 0.18,-0.116 0.187,-0.105C0.193,-0.093 0.196,-0.081 0.196,-0.067C0.196,-0.053 0.193,-0.041 0.187,-0.029C0.18,-0.018 0.171,-0.008 0.16,-0.001C0.149,0.006 0.136,0.009 0.122,0.009Z" style="fill-rule:nonzero;"/>
            </g>
            <g transform="matrix(833.333333,0,0,833.333333,1435.602883,1264.7335)">
            </g>
        </g>
    </g>
</svg>
